<svg id="Lager_1" data-name="Lager 1" xmlns="http://www.w3.org/2000/svg" viewBox="0 0 750 1334"><defs><style>.cls-1{fill:#d0dd27;opacity:0.37;}.cls-2{fill:#fff;}</style></defs><title>Mountain</title><rect class="cls-1" width="750" height="1334"/><polyline class="cls-2" points="203.38 716.91 333.4 475.12 360.55 519.99 385.41 475.12 397.58 519.99 419.8 486.04 428.68 515.99 453.86 486.04 567.44 716.91"/><path d="M208.2,717.56l44-81.91,69.91-130,16.07-29.87h-9.64l27.15,44.86c1.51,2.49,8.19,2.62,9.64,0l24.86-44.86-9.82-.65L392.58,520c.9,3.33,8.13,3.24,9.82.65l22.22-33.95H415l8.89,30c.95,3.2,8.14,1.79,9.64,0l25.18-30H449L487.59,565,548.52,688.9l14.1,28.65c1.44,2.93,11.26,2,9.64-1.3l-38.55-78.35L472.78,514l-14.1-28.65c-1.47-3-7.9-2.07-9.64,0l-25.18,30h9.64l-8.89-30c-.89-3-8.3-2.05-9.64,0l-22.22,33.95,9.82.65-12.17-44.86c-.87-3.19-8.29-3.41-9.82-.65l-24.86,44.86h9.64l-27.15-44.86c-1.49-2.47-8.22-2.64-9.64,0l-44,81.91-69.91,130-16.07,29.87c-1.69,3.14,8.07,4.23,9.64,1.3Z"/><path d="M338.4,478.34a99.17,99.17,0,0,1,19.78-25.2c6.42-5.95,13.83-11.1,22.15-14,10.13-3.51,19-1.22,28.44,4.1,17.2,9.7,29.7,26.43,40.09,42.78,1.32,2.08,9.58-.66,10,0-10.2-16.06-22.42-32.38-39-42.31-11-6.56-23.33-8.76-36-7.7-19.76,1.66-35.55,14.69-47.2,29.91a93.7,93.7,0,0,0-8.25,12.4c.28-.51,8.89,2.06,10,0Z"/><path d="M605.64,1328.24c-6.27-11.3-12.1-22.87-17.84-34.45q-20.92-42.24-38.68-86c-14.69-36.3-27.69-73.4-37.29-111.39-9.15-36.18-15.81-74-13.6-111.42,1.81-30.71,10.49-62.62,33.53-84.33,6.87-6.47,15-11,22.44-16.67a108.53,108.53,0,0,0,20.9-21,96.39,96.39,0,0,0,13.17-22.56c7.32-18.45,3.59-37-12-49.86-12-9.9-27.29-15.5-42.13-19.62-25.55-7.08-52.26-9.92-78.65-11.56a345.05,345.05,0,0,0-42.48-.24q-15.36.93-30.73,1.49c-11,.38-22,.63-33.07.37-7.47-.17-16.43.25-23.54-2.47s3.68-8.15,6.64-9.65c10.8-5.44,22.53-9.22,34.07-12.74s23-6.37,34.55-9.54c7.46-2.06,14.5-4.75,21.79-7.39,5.58-2,10.54-4.91,16-7.18,1.86-.78.17-1.75-1.15-1.2-5.92,2.47-11,5.37-16.87,7.5-2.78,1-5.52,2-8.26,3.16-5.24,2.14-10.59,3.21-16,4.89-22.06,6.89-45,11-65.79,21.54-2.53,1.28-12.24,5.62-10.42,9.89,1.55,3.62,10.37,3.73,13.4,4,20.89,2.12,42.32.79,63.25-.24,10.1-.5,20.23-1.44,30.34-1.58,17-.23,34.12,1.2,51,2.94,23.85,2.45,48.25,6.21,70.69,15,20.91,8.19,42.93,23.56,40.13,48.78-2.65,23.81-22.3,46.55-41,59.46-13,9-24.52,18-33.21,31.51-8.17,12.7-13.3,27.15-16.28,41.9-7,34.92-3.26,71.63,3.39,106.29,7.52,39.16,19.51,77.41,33.42,114.74,12.13,32.54,25.87,64.48,40.79,95.83,8,16.91,16.4,33.71,25.33,50.18.41.76.83,1.52,1.25,2.28.54,1,3.34,0,2.9-.78Z"/><path d="M153.82,1335.7c1.2-25.23,6.23-51.06,11.79-75.76a667,667,0,0,1,64.49-171.85c40.32-74.11,96.12-141.88,164.17-192.16a326.83,326.83,0,0,1,34.34-22.18c8.47-4.75,17.2-8.78,25-14.6,13.9-10.34,26.19-23,37.58-36,3.71-4.24,9-8.76,8.13-15-1-6.91-7.66-12-13.24-15.21-11.55-6.72-25.17-9.77-38.25-11.76-17.25-2.63-34.65-2.91-52.06-2.75-18.19.16-36.42-.2-54.6-1-12.59-.54-25.19-1.28-37.7-2.74-8.23-1-17.79-1.65-25.32-5.43-4.71-2.36-4.15-5.48,0-8.19,7.35-4.77,16-8,24.1-11.19a384.82,384.82,0,0,1,55.62-16.59c9.43-2.1,19-3.89,28.32-6.29a511.88,511.88,0,0,0,49.9-15.08c7.68-2.83,53.74-18.72,40.5-33.21-4.11-4.5-11.81-6-17.42-7.39-10.41-2.62-21-4.38-31.63-6.07-25.38-4.06-51-7.13-76.14-12.33-9.49-2-19.25-4.06-28.16-8-4-1.76-11.13-5.14-9.72-10.66.73-2.86,3.5-5,5.76-6.65,5.79-4.18,12.58-7.11,19.24-9.57,16.18-6,33.41-8.83,50.46-11,14.29-1.82,28.68-2.81,43-4.75,5.3-.72,17.16-1.18,20.42-6.6,3.55-5.91-9.85-12.42-13.23-14.37-.79-.46-3.3.72-2.71,1.06,3,1.74,19.08,10.18,11.56,14.9-3.48,2.19-8.51,2.61-12.46,3.22-6.29,1-12.63,1.59-19,2.24-30.75,3.14-64,5.39-91.9,20-4.69,2.45-13.87,6.85-14.22,13.24-.29,5.19,6.07,8.25,10,10,8.57,3.88,18,5.95,27.17,7.89,12.21,2.59,24.55,4.58,36.89,6.48,23.89,3.68,48.23,6.24,71.73,12.06,5.68,1.41,14.13,2.86,18,7.76,6.74,8.45-8.34,16.7-14.1,19.83-36.69,19.94-79.19,25.55-119,36.1-17.37,4.61-34.64,10.08-51.06,17.42-5.14,2.29-10.86,4.56-15.37,8C262,771.41,295,775.26,299.37,775.81c23.78,3,47.92,3.56,71.86,3.9,23.18.33,46.47-.8,69.52,2.11,14.58,1.84,30.11,4.79,42.95,12.35,5.56,3.27,12.45,8.53,12.84,15.6.38,6.9-7.81,13.31-11.88,17.79-12.42,13.69-26,27.92-42.17,37.21-10.36,6-21,11.2-31.14,17.62a343.12,343.12,0,0,0-30.48,21.83,597.75,597.75,0,0,0-127.64,140.72c-36.52,55.9-64,117.63-82,181.88-9.58,34.13-17.09,69.35-20,104.75-.13,1.63-.26,3.26-.34,4.9,0,.65,2.85.22,2.9-.78Z"/></svg>